HIERARCHY
ROOT hip
{
  OFFSET 40.6541 80.7625 -253.182
  CHANNELS 6 Xposition Yposition Zposition Zrotation Xrotation Yrotation
  JOINT abdomen
  {
    OFFSET 0 20.6881 -0.73152
    CHANNELS 3 Zrotation Xrotation Yrotation
    JOINT chest
    {
      OFFSET 0 11.7043 -0.48768
      CHANNELS 3 Zrotation Xrotation Yrotation
      JOINT neck
      {
        OFFSET 0 22.1894 -2.19456
        CHANNELS 3 Zrotation Xrotation Yrotation
        JOINT head
        {
          OFFSET -0.24384 7.07133 1.2192
          CHANNELS 3 Zrotation Xrotation Yrotation
          JOINT leftEye
          {
            OFFSET 4.14528 8.04674 8.04672
            CHANNELS 3 Zrotation Xrotation Yrotation
            End Site
            {
              OFFSET 1 0 0
            }
          }
          JOINT rightEye
          {
            OFFSET -3.6576 8.04674 8.04672
            CHANNELS 3 Zrotation Xrotation Yrotation
            End Site
            {
              OFFSET 1 0 0
            }
          }
        }
      }
      JOINT rCollar
      {
        OFFSET -2.68224 19.2634 -4.8768
        CHANNELS 3 Zrotation Xrotation Yrotation
        JOINT rShldr
        {
          OFFSET -8.77824 -1.95073 1.46304
          CHANNELS 3 Zrotation Xrotation Yrotation
          JOINT rForeArm
          {
            OFFSET -28.1742 -1.7115 0.48768
            CHANNELS 3 Zrotation Xrotation Yrotation
            JOINT rHand
            {
              OFFSET -22.5879 0.773209 7.07136
              CHANNELS 3 Zrotation Xrotation Yrotation
              JOINT rThumb1
              {
                OFFSET -1.2192 -0.487915 3.41376
                CHANNELS 3 Zrotation Xrotation Yrotation
                JOINT rThumb2
                {
                  OFFSET -3.37035 -0.52449 3.41376
                  CHANNELS 3 Zrotation Xrotation Yrotation
                  End Site
                  {
                    OFFSET -1.78271 -1.18214 1.43049
                  }
                }
              }
              JOINT rIndex1
              {
                OFFSET -7.75947 0.938293 5.60832
                CHANNELS 3 Zrotation Xrotation Yrotation
                JOINT rIndex2
                {
                  OFFSET -2.54057 -0.884171 1.56538
                  CHANNELS 3 Zrotation Xrotation Yrotation
                  End Site
                  {
                    OFFSET -1.62519 -0.234802 1.16502
                  }
                }
              }
              JOINT rMid1
              {
                OFFSET -8.24714 1.18213 3.41376
                CHANNELS 3 Zrotation Xrotation Yrotation
                JOINT rMid2
                {
                  OFFSET -3.10165 -0.590103 1.0647
                  CHANNELS 3 Zrotation Xrotation Yrotation
                  End Site
                  {
                    OFFSET -2.48547 -0.328903 0.83742
                  }
                }
              }
              JOINT rRing1
              {
                OFFSET -8.82822 0.546677 1.51678
                CHANNELS 3 Zrotation Xrotation Yrotation
                JOINT rRing2
                {
                  OFFSET -2.60934 -0.819778 -0.0198488
                  CHANNELS 3 Zrotation Xrotation Yrotation
                  End Site
                  {
                    OFFSET -2.33842 -0.294052 0.168128
                  }
                }
              }
              JOINT rPinky1
              {
                OFFSET -8.27202 -0.0477905 -0.4584
                CHANNELS 3 Zrotation Xrotation Yrotation
                JOINT rPinky2
                {
                  OFFSET -1.82734 -0.647385 -0.700984
                  CHANNELS 3 Zrotation Xrotation Yrotation
                  End Site
                  {
                    OFFSET -1.69225 -0.51767 -0.607171
                  }
                }
              }
            }
          }
        }
      }
      JOINT lCollar
      {
        OFFSET 2.68224 19.2634 -4.8768
        CHANNELS 3 Zrotation Xrotation Yrotation
        JOINT lShldr
        {
          OFFSET 8.77824 -1.95073 1.46304
          CHANNELS 3 Zrotation Xrotation Yrotation
          JOINT lForeArm
          {
            OFFSET 28.1742 -1.7115 0.48768
            CHANNELS 3 Zrotation Xrotation Yrotation
            JOINT lHand
            {
              OFFSET 22.5879 0.773209 7.07136
              CHANNELS 3 Zrotation Xrotation Yrotation
              JOINT lThumb1
              {
                OFFSET 1.2192 -0.487915 3.41376
                CHANNELS 3 Zrotation Xrotation Yrotation
                JOINT lThumb2
                {
                  OFFSET 3.37035 -0.52449 3.41376
                  CHANNELS 3 Zrotation Xrotation Yrotation
                  End Site
                  {
                    OFFSET 1.78271 -1.18214 1.43049
                  }
                }
              }
              JOINT lIndex1
              {
                OFFSET 7.75947 0.938293 5.60832
                CHANNELS 3 Zrotation Xrotation Yrotation
                JOINT lIndex2
                {
                  OFFSET 2.54057 -0.884171 1.56538
                  CHANNELS 3 Zrotation Xrotation Yrotation
                  End Site
                  {
                    OFFSET 1.62519 -0.234802 1.16502
                  }
                }
              }
              JOINT lMid1
              {
                OFFSET 8.24714 1.18213 3.41376
                CHANNELS 3 Zrotation Xrotation Yrotation
                JOINT lMid2
                {
                  OFFSET 3.10165 -0.590103 1.0647
                  CHANNELS 3 Zrotation Xrotation Yrotation
                  End Site
                  {
                    OFFSET 2.48547 -0.328903 0.83742
                  }
                }
              }
              JOINT lRing1
              {
                OFFSET 8.82822 0.546677 1.51678
                CHANNELS 3 Zrotation Xrotation Yrotation
                JOINT lRing2
                {
                  OFFSET 2.60934 -0.819778 -0.0198488
                  CHANNELS 3 Zrotation Xrotation Yrotation
                  End Site
                  {
                    OFFSET 2.33842 -0.294052 0.168128
                  }
                }
              }
              JOINT lPinky1
              {
                OFFSET 8.27202 -0.0477905 -0.4584
                CHANNELS 3 Zrotation Xrotation Yrotation
                JOINT lPinky2
                {
                  OFFSET 1.82734 -0.647385 -0.700984
                  CHANNELS 3 Zrotation Xrotation Yrotation
                  End Site
                  {
                    OFFSET 1.69225 -0.51767 -0.607171
                  }
                }
              }
            }
          }
        }
      }
    }
  }
  JOINT rButtock
  {
    OFFSET -8.77824 4.35084 1.2192
    CHANNELS 3 Zrotation Xrotation Yrotation
    JOINT rThigh
    {
      OFFSET 0 -1.70687 -2.19456
      CHANNELS 3 Zrotation Xrotation Yrotation
      JOINT rShin
      {
        OFFSET 0 -36.8199 0.73152
        CHANNELS 3 Zrotation Xrotation Yrotation
        JOINT rFoot
        {
          OFFSET 0.73152 -45.1104 -5.12064
          CHANNELS 3 Zrotation Xrotation Yrotation
          End Site
          {
            OFFSET -1.1221 -3.69964 12.103
          }
        }
      }
    }
  }
  JOINT lButtock
  {
    OFFSET 8.77824 4.35084 1.2192
    CHANNELS 3 Zrotation Xrotation Yrotation
    JOINT lThigh
    {
      OFFSET 0 -1.70687 -2.19456
      CHANNELS 3 Zrotation Xrotation Yrotation
      JOINT lShin
      {
        OFFSET 0 -36.8199 0.73152
        CHANNELS 3 Zrotation Xrotation Yrotation
        JOINT lFoot
        {
          OFFSET -0.73152 -45.1104 -5.12064
          CHANNELS 3 Zrotation Xrotation Yrotation
          End Site
          {
            OFFSET 1.1221 -3.69964 12.103
          }
        }
      }
    }
  }
}
MOTION
Frames:	5
Frame Time:	0.00833333
55.0268 151.721 -77.4795 -149.582 -80.7382 -147.115 -8.92117 42.7321 2.59119 0.9385 -3.03878 1.27118 -6.02991 5.50685 -3.37459 8.78447 -34.9047 -2.92669 -0 0 0 -0 0 0 -1.37202e-013 6.47064e-014 5.92677e-014 66.2774 42.2915 9.06605 -23.3008 -17.8374 47.521 -8.25799 -60.4661 -14.2415 -2.96833e-010 6.22563e-010 6.00846e-011 -5.05725e-010 1.179e-009 9.05624e-011 -2.96821e-010 6.2256e-010 6.00628e-011 7.73091 5.47488 0.417314 -2.96834e-010 6.22559e-010 6.00802e-011 2.90554 0.965183 0.102902 -2.96826e-010 6.22538e-010 6.00794e-011 10.2786 0.731801 0.0259123 -2.96843e-010 6.22561e-010 6.00874e-011 2.22167 -0.733487 -0.20892 -1.37353e-013 6.47009e-014 5.89715e-014 -59.9523 46.93 -13.7897 24.105 -19.2894 -49.999 21.1255 -73.3773 28.0975 -5.67644e-010 1.55868e-009 -5.73203e-010 -9.37101e-010 2.68027e-009 -1.0147e-009 -5.67643e-010 1.55868e-009 -5.73199e-010 -7.73091 5.47488 -0.417314 -5.67642e-010 1.55871e-009 -5.73203e-010 -2.90554 0.965183 -0.102902 -5.67647e-010 1.55868e-009 -5.73208e-010 -10.2786 0.731801 -0.0259123 -5.67641e-010 1.55868e-009 -5.73213e-010 -2.22167 -0.733487 0.20892 -2.03217e-016 0 -3.88251e-019 38.9837 -75.6648 29.0353 -4.30738 63.9546 1.35236 0.850371 11.0024 -173.848 2.03217e-016 0 3.88251e-019 145.041 -80.7951 149.027 -37.1091 82.8993 -54.2196 174.508 -0.5958 80.5925 
55.0356 156.744 -80.6618 -165.273 -70.5081 -164.02 -7.95796 45.2537 2.35636 1.32669 -3.74038 1.37536 -6.32687 4.63585 -3.58504 8.68138 -37.1383 -3.01591 -0 0 0 -0 0 0 -1.12825e-013 7.63349e-014 2.77305e-014 69.1768 46.141 8.23457 -23.6104 -18.3866 48.3996 -10.6056 -64.1378 -16.8531 -6.99649e-010 -1.62576e-009 -3.57682e-010 -1.18089e-009 -2.6652e-009 -6.48358e-010 -6.99637e-010 -1.62576e-009 -3.57707e-010 7.73091 5.47488 0.417314 -6.9965e-010 -1.62576e-009 -3.57688e-010 2.90554 0.965183 0.102902 -6.99645e-010 -1.62578e-009 -3.57689e-010 10.2786 0.731801 0.0259123 -6.9966e-010 -1.62576e-009 -3.57682e-010 2.22167 -0.733487 -0.20892 -1.13002e-013 7.63298e-014 2.74323e-014 -60.366 52.0399 -17.4149 24.422 -19.9073 -50.9736 21.6673 -73.6694 28.6633 1.0264e-010 -1.10176e-009 -5.39934e-010 2.08152e-010 -1.94849e-009 -9.20332e-010 1.02642e-010 -1.10175e-009 -5.39931e-010 -7.73091 5.47488 -0.417314 1.02641e-010 -1.10172e-009 -5.39937e-010 -2.90554 0.965183 -0.102902 1.02636e-010 -1.10175e-009 -5.3994e-010 -10.2786 0.731801 -0.0259123 1.02644e-010 -1.10175e-009 -5.39944e-010 -2.22167 -0.733487 0.20892 -2.03217e-016 0 -3.88251e-019 45.2658 -76.5567 34.6148 -1.56164 61.1183 0.239704 1.33748 7.27226 -175.103 2.03217e-016 0 3.88251e-019 146.923 -79.8068 151.377 -42.6726 80.2199 -60.4043 179.725 -5.45045 67.9521 
54.2677 161.173 -84.0407 -171.712 -60.2551 -170.89 -6.0763 46.0601 1.1414 1.30336 -4.08245 1.37076 -6.37445 4.0818 -3.86623 8.82873 -39.6301 -3.19801 -0 0 0 -0 0 0 -8.99415e-014 7.98133e-014 3.16945e-014 68.5507 49.5411 8.08777 -23.9886 -19.0881 49.4813 -11.812 -65.6509 -18.1664 -1.39681e-009 -2.33387e-009 -2.88221e-010 -2.38411e-009 -3.85611e-009 -5.64142e-010 -1.3968e-009 -2.33388e-009 -2.88246e-010 7.73091 5.47488 0.417314 -1.39681e-009 -2.33388e-009 -2.88229e-010 2.90554 0.965183 0.102902 -1.39681e-009 -2.3339e-009 -2.8823e-010 10.2786 0.731801 0.0259123 -1.39682e-009 -2.33387e-009 -2.88222e-010 2.22167 -0.733487 -0.20892 -9.01384e-014 7.98088e-014 3.14029e-014 -59.6186 54.9393 -19.2082 24.8546 -20.7985 -52.2961 23.1282 -74.3868 30.1833 8.25141e-010 -1.93732e-009 -7.24592e-010 1.457e-009 -3.36617e-009 -1.19481e-009 8.25143e-010 -1.93731e-009 -7.24589e-010 -7.73091 5.47488 -0.417314 8.25142e-010 -1.93729e-009 -7.24595e-010 -2.90554 0.965183 -0.102902 8.25137e-010 -1.93732e-009 -7.24597e-010 -10.2786 0.731801 -0.0259123 8.25145e-010 -1.93732e-009 -7.24601e-010 -2.22167 -0.733487 0.20892 -2.03217e-016 0 -3.88251e-019 48.4994 -77.2841 38.0009 -1.40691 58.8709 -0.0140596 1.34996 7.79588 -175.804 2.03217e-016 0 3.88251e-019 152.242 -78.3653 156.012 -43.2187 77.6722 -65.5212 179.817 -9.08398 62.6955 
54.4838 165.216 -88.2931 -175.995 -49.8086 -175.533 -3.40967 45.6759 -0.680831 1.06928 -4.19207 1.30877 -6.28273 3.68872 -4.19543 9.07985 -42.1739 -3.45617 -0 0 0 -0 0 0 -5.90837e-014 8.26954e-014 5.78215e-014 65.6016 52.5413 8.16229 -24.4303 -19.9407 50.8562 -12.0257 -65.9244 -18.4021 -2.31184e-009 -2.15409e-009 1.10209e-010 -3.97645e-009 -3.5142e-009 7.49656e-011 -2.31183e-009 -2.15409e-009 1.10188e-010 7.73091 5.47488 0.417314 -2.31184e-009 -2.15409e-009 1.10202e-010 2.90554 0.965183 0.102902 -2.31184e-009 -2.1541e-009 1.102e-010 10.2786 0.731801 0.0259123 -2.31185e-009 -2.15409e-009 1.10208e-010 2.22167 -0.733487 -0.20892 -5.92965e-014 8.26917e-014 5.75451e-014 -58.7834 56.2915 -19.0292 25.3494 -21.8799 -54.003 25.7446 -75.4944 32.8926 1.59941e-009 -1.79348e-009 -1.06437e-009 2.80515e-009 -3.05592e-009 -1.73165e-009 1.59941e-009 -1.79348e-009 -1.06437e-009 -7.73091 5.47488 -0.417314 1.59941e-009 -1.79347e-009 -1.06437e-009 -2.90554 0.965183 -0.102902 1.5994e-009 -1.79348e-009 -1.06437e-009 -10.2786 0.731801 -0.0259123 1.59941e-009 -1.79348e-009 -1.06438e-009 -2.22167 -0.733487 0.20892 -2.03217e-016 0 -3.88251e-019 49.1892 -77.8474 39.5574 -1.30864 57.0537 -0.236692 1.35901 8.51588 -176.416 2.03217e-016 0 3.88251e-019 157.87 -77.129 160.132 -40.5679 74.9599 -69.7946 179.751 -11.6246 61.5729 
54.3228 168.641 -93.1009 -178.088 -38.703 -178.342 -1.34608 45.4253 -1.91561 0.783696 -4.40011 1.25987 -6.1051 3.39606 -4.49117 9.22645 -44.5071 -3.73392 -0 0 0 -0 0 0 -3.32235e-014 8.55774e-014 8.13394e-014 62.3433 54.8374 8.08944 -24.8027 -20.6893 52.1637 -11.7059 -65.5857 -18.0619 -2.97542e-009 -1.71786e-009 5.29264e-010 -5.13713e-009 -2.74829e-009 7.61988e-010 -2.97541e-009 -1.71786e-009 5.29247e-010 7.73091 5.47488 0.417314 -2.97542e-009 -1.71786e-009 5.29256e-010 2.90554 0.965183 0.102902 -2.97542e-009 -1.71786e-009 5.29254e-010 10.2786 0.731801 0.0259123 -2.97543e-009 -1.71786e-009 5.29263e-010 2.22167 -0.733487 -0.20892 -3.34461e-014 8.55746e-014 8.10797e-014 -58.3079 56.7605 -17.8561 25.7285 -22.7627 -55.5476 28.3275 -76.4112 35.5544 2.14198e-009 -1.32784e-009 -1.35535e-009 3.75376e-009 -2.19047e-009 -2.19782e-009 2.14199e-009 -1.32784e-009 -1.35535e-009 -7.73091 5.47488 -0.417314 2.14199e-009 -1.32783e-009 -1.35535e-009 -2.90554 0.965183 -0.102902 2.14198e-009 -1.32784e-009 -1.35536e-009 -10.2786 0.731801 -0.0259123 2.14199e-009 -1.32784e-009 -1.35536e-009 -2.22167 -0.733487 0.20892 -2.03217e-016 0 -3.88251e-019 45.5696 -78.0588 36.9508 -1.26775 55.9618 -0.391861 1.37192 9.26966 -176.962 2.03217e-016 0 3.88251e-019 160.02 -76.6743 160.719 -34.4079 73.0915 -71.3119 -179.64 -10.9324 66.3423 
